<svg width="650" height="105" viewBox="0 0 650 105" fill="none" xmlns="http://www.w3.org/2000/svg">
<path d="M4.808 103C3.752 103 2.84 102.616 2.072 101.848C1.304 101.08 0.92 100.168 0.92 99.112V6.08799C0.92 5.032 1.304 4.12 2.072 3.352C2.84 2.58399 3.752 2.19999 4.808 2.19999H46.28C55.304 2.19999 63.368 3.73599 70.472 6.80799C77.576 9.784 83.24 14.2 87.464 20.056C91.784 25.912 94.088 33.16 94.376 41.8C94.568 45.928 94.664 49.576 94.664 52.744C94.664 55.816 94.568 59.32 94.376 63.256C93.992 72.28 91.784 79.768 87.752 85.72C83.72 91.576 78.2 95.944 71.192 98.824C64.28 101.608 56.216 103 47 103H4.808ZM36.92 74.92H46.28C48.392 74.92 50.264 74.536 51.896 73.768C53.624 72.904 55.016 71.608 56.072 69.88C57.128 68.152 57.704 65.944 57.8 63.256C57.992 60.472 58.088 57.976 58.088 55.768C58.184 53.56 58.184 51.352 58.088 49.144C58.088 46.84 57.992 44.392 57.8 41.8C57.608 37.768 56.312 34.84 53.912 33.016C51.608 31.192 48.824 30.28 45.56 30.28H36.92V74.92ZM144.81 104.44C132.234 104.44 122.202 101.368 114.714 95.224C107.322 88.984 103.626 79.144 103.626 65.704C103.626 65.512 103.626 65.32 103.626 65.128C103.626 64.936 103.626 64.792 103.626 64.696C103.818 56.44 105.594 49.48 108.954 43.816C112.41 38.152 117.162 33.88 123.21 31C129.354 28.12 136.506 26.68 144.666 26.68C154.074 26.68 161.802 28.504 167.85 32.152C173.898 35.704 178.362 40.456 181.242 46.408C184.218 52.264 185.706 58.744 185.706 65.848V70.168C185.706 71.224 185.322 72.136 184.554 72.904C183.786 73.672 182.874 74.056 181.818 74.056H138.906C138.906 74.152 138.906 74.248 138.906 74.344C138.906 74.44 138.906 74.584 138.906 74.776C138.906 76.696 139.05 78.328 139.338 79.672C139.722 80.92 140.346 81.88 141.21 82.552C142.074 83.224 143.178 83.56 144.522 83.56C145.098 83.56 145.578 83.464 145.962 83.272C146.442 83.08 146.874 82.792 147.258 82.408C147.738 81.928 148.218 81.448 148.698 80.968C149.562 80.104 150.282 79.576 150.858 79.384C151.434 79.096 152.298 78.952 153.45 78.952H180.666C181.626 78.952 182.394 79.24 182.97 79.816C183.642 80.392 183.93 81.16 183.834 82.12C183.738 83.944 182.874 86.152 181.242 88.744C179.706 91.24 177.354 93.688 174.186 96.088C171.018 98.488 166.986 100.504 162.09 102.136C157.194 103.672 151.434 104.44 144.81 104.44ZM138.906 56.056H150.426V55.912C150.426 53.8 150.186 52.072 149.706 50.728C149.322 49.384 148.698 48.424 147.834 47.848C146.97 47.176 145.914 46.84 144.666 46.84C143.418 46.84 142.362 47.176 141.498 47.848C140.634 48.424 139.962 49.384 139.482 50.728C139.098 52.072 138.906 53.8 138.906 55.912V56.056ZM220.059 103C218.619 103 217.563 102.616 216.891 101.848C216.315 101.08 215.787 100.264 215.307 99.4L187.659 32.584C187.563 32.296 187.515 31.96 187.515 31.576C187.515 30.616 187.851 29.8 188.523 29.128C189.195 28.456 190.011 28.12 190.971 28.12H215.307C216.747 28.12 217.803 28.504 218.475 29.272C219.243 30.04 219.771 30.808 220.059 31.576L231.579 65.128L243.099 31.576C243.387 30.808 243.867 30.04 244.539 29.272C245.307 28.504 246.411 28.12 247.851 28.12H272.187C273.147 28.12 273.963 28.456 274.635 29.128C275.307 29.8 275.643 30.616 275.643 31.576C275.643 31.96 275.595 32.296 275.499 32.584L247.851 99.4C247.467 100.264 246.939 101.08 246.267 101.848C245.595 102.616 244.539 103 243.099 103H220.059Z" fill="#50B8FC"/>
<path d="M311.05 103C309.994 103 309.082 102.616 308.314 101.848C307.546 101.08 307.162 100.168 307.162 99.112V33.16H283.258C282.202 33.16 281.29 32.776 280.522 32.008C279.754 31.24 279.37 30.328 279.37 29.272V6.08799C279.37 5.032 279.754 4.12 280.522 3.352C281.29 2.58399 282.202 2.19999 283.258 2.19999H367.642C368.698 2.19999 369.61 2.58399 370.378 3.352C371.146 4.12 371.53 5.032 371.53 6.08799V29.272C371.53 30.328 371.146 31.24 370.378 32.008C369.61 32.776 368.698 33.16 367.642 33.16H343.738V99.112C343.738 100.168 343.354 101.08 342.586 101.848C341.818 102.616 340.906 103 339.85 103H311.05ZM404.555 104.44C399.755 104.44 395.195 103.288 390.875 100.984C386.651 98.68 383.195 95.128 380.507 90.328C377.915 85.528 376.619 79.336 376.619 71.752V32.008C376.619 30.952 377.003 30.04 377.771 29.272C378.539 28.504 379.451 28.12 380.507 28.12H408.011C409.067 28.12 409.979 28.504 410.747 29.272C411.515 30.04 411.899 30.952 411.899 32.008V70.744C411.899 76.024 414.299 78.664 419.099 78.664C421.403 78.664 423.179 77.992 424.427 76.648C425.675 75.304 426.299 73.336 426.299 70.744V32.008C426.299 30.952 426.683 30.04 427.451 29.272C428.219 28.504 429.131 28.12 430.187 28.12H457.547C458.603 28.12 459.515 28.504 460.283 29.272C461.051 30.04 461.435 30.952 461.435 32.008V99.112C461.435 100.168 461.051 101.08 460.283 101.848C459.515 102.616 458.603 103 457.547 103H432.347C431.291 103 430.379 102.616 429.611 101.848C428.843 101.08 428.459 100.168 428.459 99.112V94.36C426.059 97.912 422.747 100.504 418.523 102.136C414.299 103.672 409.643 104.44 404.555 104.44ZM527.939 104.44C522.947 104.44 518.723 103.672 515.267 102.136C511.811 100.504 508.931 98.392 506.627 95.8V99.112C506.627 100.168 506.243 101.08 505.475 101.848C504.707 102.616 503.795 103 502.739 103H478.259C477.203 103 476.291 102.616 475.523 101.848C474.755 101.08 474.371 100.168 474.371 99.112V4.648C474.371 3.592 474.755 2.68 475.523 1.912C476.291 1.144 477.203 0.759995 478.259 0.759995H504.899C505.955 0.759995 506.867 1.144 507.635 1.912C508.403 2.68 508.787 3.592 508.787 4.648V33.448C511.091 31.336 513.827 29.704 516.995 28.552C520.259 27.304 523.907 26.68 527.939 26.68C532.163 26.68 536.051 27.352 539.603 28.696C543.251 30.04 546.419 32.056 549.107 34.744C551.891 37.432 554.099 40.888 555.731 45.112C557.363 49.24 558.275 54.136 558.467 59.8C558.563 61.912 558.611 63.784 558.611 65.416C558.611 67.048 558.563 68.968 558.467 71.176C558.179 77.224 557.219 82.36 555.587 86.584C553.955 90.808 551.747 94.264 548.963 96.952C546.275 99.544 543.155 101.464 539.603 102.712C536.051 103.864 532.163 104.44 527.939 104.44ZM515.987 78.664C517.811 78.664 519.203 78.328 520.163 77.656C521.123 76.984 521.795 76.024 522.179 74.776C522.659 73.528 522.995 72.04 523.187 70.312C523.475 67.144 523.475 63.976 523.187 60.808C522.995 59.08 522.659 57.592 522.179 56.344C521.795 55.096 521.123 54.136 520.163 53.464C519.203 52.792 517.811 52.456 515.987 52.456C514.355 52.456 513.011 52.744 511.955 53.32C510.995 53.896 510.227 54.712 509.651 55.768C509.171 56.824 508.883 58.12 508.787 59.656C508.691 61.768 508.643 63.544 508.643 64.984C508.643 66.328 508.691 68.104 508.787 70.312C508.883 72.04 509.123 73.528 509.507 74.776C509.987 76.024 510.755 76.984 511.811 77.656C512.867 78.328 514.259 78.664 515.987 78.664ZM608.31 104.44C595.734 104.44 585.702 101.368 578.214 95.224C570.822 88.984 567.126 79.144 567.126 65.704C567.126 65.512 567.126 65.32 567.126 65.128C567.126 64.936 567.126 64.792 567.126 64.696C567.318 56.44 569.094 49.48 572.454 43.816C575.91 38.152 580.662 33.88 586.71 31C592.854 28.12 600.006 26.68 608.166 26.68C617.574 26.68 625.302 28.504 631.35 32.152C637.398 35.704 641.862 40.456 644.742 46.408C647.718 52.264 649.206 58.744 649.206 65.848V70.168C649.206 71.224 648.822 72.136 648.054 72.904C647.286 73.672 646.374 74.056 645.318 74.056H602.406C602.406 74.152 602.406 74.248 602.406 74.344C602.406 74.44 602.406 74.584 602.406 74.776C602.406 76.696 602.55 78.328 602.838 79.672C603.222 80.92 603.846 81.88 604.71 82.552C605.574 83.224 606.678 83.56 608.022 83.56C608.598 83.56 609.078 83.464 609.462 83.272C609.942 83.08 610.374 82.792 610.758 82.408C611.238 81.928 611.718 81.448 612.198 80.968C613.062 80.104 613.782 79.576 614.358 79.384C614.934 79.096 615.798 78.952 616.95 78.952H644.166C645.126 78.952 645.894 79.24 646.47 79.816C647.142 80.392 647.43 81.16 647.334 82.12C647.238 83.944 646.374 86.152 644.742 88.744C643.206 91.24 640.854 93.688 637.686 96.088C634.518 98.488 630.486 100.504 625.59 102.136C620.694 103.672 614.934 104.44 608.31 104.44ZM602.406 56.056H613.926V55.912C613.926 53.8 613.686 52.072 613.206 50.728C612.822 49.384 612.198 48.424 611.334 47.848C610.47 47.176 609.414 46.84 608.166 46.84C606.918 46.84 605.862 47.176 604.998 47.848C604.134 48.424 603.462 49.384 602.982 50.728C602.598 52.072 602.406 53.8 602.406 55.912V56.056Z" fill="#6B6B6B"/>
</svg>
